<mxfile host="app.diagrams.net" modified="2023-07-02T16:43:56.648Z" agent="Mozilla/5.0 (Windows NT 10.0; Win64; x64) AppleWebKit/537.36 (KHTML, like Gecko) Chrome/114.0.0.0 Safari/537.36 Edg/114.0.1823.67" version="21.5.2" etag="q4h8Dnz6cZKcUJ_Vc8B9" type="github">
  <diagram name="第 1 页" id="8ovNmg2u6S_Lj8ZdM1Zn">
    <mxGraphModel>
      <root>
        <mxCell id="0" />
        <mxCell id="1" parent="0" />
      </root>
    </mxGraphModel>
  </diagram>
</mxfile>
